<svg viewBox="0 0 184 184" fill="none" xmlns="http://www.w3.org/2000/svg">
<g clip-path="url(#clip0_114_2)">
<path d="M92 166.75C77.2158 166.75 62.7637 162.366 50.4711 154.152C38.1786 145.939 28.5977 134.264 22.94 120.606C17.2824 106.947 15.8021 91.9171 18.6863 77.417C21.5705 62.9169 28.6898 49.5977 39.1438 39.1438C49.5977 28.6898 62.9169 21.5705 77.417 18.6863C91.9171 15.8021 106.947 17.2824 120.606 22.94C134.264 28.5977 145.939 38.1786 154.152 50.4711C162.366 62.7637 166.75 77.2158 166.75 92C166.75 111.825 158.875 130.838 144.856 144.856C130.838 158.875 111.825 166.75 92 166.75V166.75ZM92 28.75C79.4903 28.75 67.2616 32.4595 56.8602 39.4095C46.4588 46.3595 38.3519 56.2379 33.5646 67.7953C28.7774 79.3527 27.5248 92.0702 29.9653 104.339C32.4058 116.609 38.4298 127.879 47.2755 136.725C56.1212 145.57 67.3912 151.594 79.6605 154.035C91.9298 156.475 104.647 155.223 116.205 150.435C127.762 145.648 137.64 137.541 144.59 127.14C151.54 116.738 155.25 104.51 155.25 92C155.25 75.2251 148.586 59.1372 136.725 47.2755C124.863 35.4138 108.775 28.75 92 28.75Z" fill="white"/>
</g>
<defs>
<clipPath id="clip0_114_2">
<rect width="184" height="184" fill="white"/>
</clipPath>
</defs>
</svg>
